<?xml version="1.0" encoding="UTF-8" standalone="no"?>
<svg
   focusable="false"
   data-key="edit"
   aria-hidden="true"
   viewBox="0 0 52 52"
   class="slds-icon slds-icon-text-default slds-icon_x-small"
   width="52"
   height="52"
   xmlns="http://www.w3.org/2000/svg"
   xmlns:svg="http://www.w3.org/2000/svg">
  <g
     fill="#706e6b"
     id="g958"
     transform="matrix(2.2611793,0,0,2.2611793,-1.2417242,-1.1350613)">
    <path
       d="m 4.4,15.4 4.1,4.1 c 0.2,0.2 0.5,0.2 0.6,0 L 19.4,9.2 C 19.6,9 19.6,8.8 19.4,8.6 L 15.3,4.5 C 15.1,4.3 14.9,4.3 14.7,4.5 L 4.4,14.8 c -0.2,0.2 -0.2,0.5 0,0.6 z M 16.7,2.6 c -0.2,0.2 -0.2,0.5 0,0.7 l 4,4 c 0.2,0.2 0.5,0.2 0.7,0 l 1.1,-1.1 c 0.8,-0.7 0.8,-1.8 0,-2.6 L 20.4,1.5 C 19.6,0.7 18.5,0.7 17.7,1.5 Z M 1,22.2 c -0.1,0.5 0.3,0.9 0.8,0.8 l 5,-1.2 c 0.2,0 0.3,-0.1 0.4,-0.2 L 7.3,21.5 C 7.4,21.4 7.4,21.1 7.2,20.9 L 3.1,16.8 C 2.9,16.6 2.6,16.6 2.5,16.7 l -0.1,0.1 c -0.1,0.1 -0.2,0.3 -0.2,0.4 z"
       fill="#706e6b"
       id="path956" />
  </g>
</svg>
